<?xml version="1.0" ?><svg viewBox="0 0 400.61 316.86" xmlns="http://www.w3.org/2000/svg"><defs><style>.cls-1{fill:#fbfcf2;}.cls-2,.cls-4{opacity:0.15;}.cls-3,.cls-4,.cls-8{fill:#3f5a7c;}.cls-5{fill:#f5e48f;}.cls-6{fill:#8a7683;opacity:0.5;}.cls-7{fill:#dec378;opacity:0.6;}.cls-8{opacity:0.2;}.cls-9{fill:#2e576d;}.cls-10{fill:#274b5b;}.cls-11{fill:#fff;}.cls-12{fill:none;stroke:#2e576d;stroke-miterlimit:10;stroke-width:2px;}</style></defs><title/><g data-name="Layer 2" id="Layer_2"><g data-name="Layer 1" id="Layer_1-2"><path class="cls-1" d="M184.87,88.77c-20.52-.35-39.75-8.28-57.63-16.88-23.68-11.39-48.18-25-76.51-24.29-13.17.32-26.53,4.2-35.87,12.11C4.54,68.46,0,81.27,0,93.67c-.09,28.89,20.71,53.81,24.1,82.14,3,24.65-8.84,49.38-2.47,73.84,9.43,36.16,48.79,55.93,88.68,63,33,5.86,77.59,8.8,103.38-13.43,13.09-11.28,23.55-28.66,42.17-28.82,14.62-.12,25.48,10.91,38.19,17.07,21.84,10.58,51.13,5.83,69.91-8.4,29.64-22.46,26.75-53.82,23.37-84.94a153.77,153.77,0,0,1,3.82-53.65c4.32-17.47,13.58-34.54,7.37-52.64-10.38-30.24-57.82-43.53-91.06-43-25.16.4-49.62,7.21-71.57,17.44-20.87,9.73-40,21.52-65.1,21"/><g class="cls-2"><rect class="cls-3" height="173" rx="29.09" ry="29.09" width="263" x="75.61" y="128.73"/></g><circle class="cls-4" cx="144.4" cy="108.95" r="65.18"/><circle class="cls-5" cx="152.73" cy="99.52" r="64.07"/><path class="cls-6" d="M154.94,164.06c-1.1.06-2.21.08-3.33.08a64.07,64.07,0,0,1,0-128.14c1.11,0,2.23,0,3.33.08a64.07,64.07,0,0,0,0,128Z"/><path class="cls-6" d="M149.67,36.08c1.1-.06,2.21-.08,3.33-.08a64.07,64.07,0,0,1,0,128.14c-1.11,0-2.23,0-3.33-.08a64.07,64.07,0,0,0,0-128Z"/><circle class="cls-7" cx="152.73" cy="99.52" r="52.97"/><path class="cls-8" d="M163,48a53,53,0,0,1,34.54,24.88A.83.83,0,0,0,199,72a54.61,54.61,0,0,0-35.54-25.65c-1-.23-1.49,1.38-.44,1.6Z"/><path class="cls-8" d="M205.2,99.11a52.7,52.7,0,0,1-52.14,52.14.83.83,0,0,0,0,1.66,54.4,54.4,0,0,0,53.81-53.81.83.83,0,0,0-1.66,0Z"/><path class="cls-9" d="M102.41,90.78a52,52,0,0,1,50.65-43c2.14,0,2.15-3.35,0-3.33A55.26,55.26,0,0,0,99.2,89.9c-.37,2.09,2.84,3,3.21.88Z"/><path class="cls-9" d="M101.75,99.11q0-1.37.07-2.73a1.68,1.68,0,0,0-1.66-1.66,1.7,1.7,0,0,0-1.66,1.66q-.07,1.36-.07,2.73a1.66,1.66,0,1,0,3.33,0Z"/><path class="cls-9" d="M202.26,140c-17.42,20.92-46.45,29-72,19.42a64,64,0,0,1-27.49-99.7c1.32-1.66-1-4-2.35-2.35-17.82,22.52-19.84,54.52-4.11,78.72a67.26,67.26,0,0,0,108.36,6.27c1.36-1.64-1-4-2.35-2.35Z"/><path class="cls-9" d="M208.67,130.5q-1.29,2.31-2.75,4.51c-1.19,1.79,1.69,3.46,2.87,1.68q1.46-2.21,2.75-4.51c1-1.87-1.83-3.55-2.87-1.68Z"/><path class="cls-9" d="M122.13,43.38a63.94,63.94,0,0,1,92.6,71.81c-.51,2.08,2.7,3,3.21.88A67.29,67.29,0,0,0,120.45,40.5c-1.89,1-.21,3.89,1.68,2.87Z"/><path class="cls-10" d="M169.7,99.35a12.6,12.6,0,0,0-4.32-1.89,11.8,11.8,0,0,0,3-2.51,9.6,9.6,0,0,0,1.39-4.21c.07-1,.24-5.24-3-7.68-2.53-1.89-5.43-2.63-9.32-2.88V71.64h-5.22v8.44h-4V71.64H143v8.44H132.74v5.47h3c.82,0,2.29.09,2.91.79s.73,1.07.73,2.44,0,21.28,0,21.8a2.14,2.14,0,0,1-.54,1.58c-.44.42-.88.52-1.93.52h-3.12L132.74,119H143v8.42h5.22V119h4v8.42h5.22v-8.56c1.35-.08,2.61-.18,3.34-.28a17.27,17.27,0,0,0,8-2.81c3.15-2.22,3.86-5.69,3.93-9.18S171.48,100.7,169.7,99.35ZM148.24,86s1.66-.15,3.3-.12a16.49,16.49,0,0,1,5.22.74,4.54,4.54,0,0,1,3.47,4.21,4.13,4.13,0,0,1-2.25,4,12.64,12.64,0,0,1-5.39,1.33c-1.9.07-4.34,0-4.34,0Zm11.69,25.18a16.47,16.47,0,0,1-5.91,1.43c-2.32.17-5.78.1-5.78.1v-11.3s3.32-.17,5.91,0a16.61,16.61,0,0,1,5.74,1.33,4.68,4.68,0,0,1,0,8.44Z" data-name="BTC alt" id="BTC_alt"/><path class="cls-11" d="M168.49,55.29A29.81,29.81,0,0,1,179.33,61c.82.68,2-.49,1.18-1.18a31.9,31.9,0,0,0-11.58-6.17.83.83,0,0,0-.44,1.6Z"/><circle class="cls-4" cx="195.25" cy="76.68" r="65.18"/><circle class="cls-5" cx="203.59" cy="67.26" r="64.07"/><path class="cls-6" d="M205.79,131.79c-1.1.06-2.21.08-3.33.08a64.07,64.07,0,0,1,0-128.14c1.11,0,2.23,0,3.33.08a64.07,64.07,0,0,0,0,128Z"/><path class="cls-6" d="M200.52,3.82c1.1-.06,2.21-.08,3.33-.08a64.07,64.07,0,0,1,0,128.14c-1.11,0-2.23,0-3.33-.08a64.07,64.07,0,0,0,0-128Z"/><circle class="cls-7" cx="203.59" cy="67.26" r="52.97"/><path class="cls-8" d="M213.88,15.69a53,53,0,0,1,34.54,24.88.83.83,0,0,0,1.44-.84,54.61,54.61,0,0,0-35.54-25.65c-1-.23-1.49,1.38-.44,1.6Z"/><path class="cls-8" d="M256.06,66.84A52.7,52.7,0,0,1,203.91,119a.83.83,0,0,0,0,1.66,54.4,54.4,0,0,0,53.81-53.81.83.83,0,0,0-1.66,0Z"/><path class="cls-9" d="M153.27,58.51a52,52,0,0,1,50.65-43c2.14,0,2.15-3.35,0-3.33a55.26,55.26,0,0,0-53.86,45.43c-.37,2.09,2.84,3,3.21.88Z"/><path class="cls-9" d="M152.6,66.84q0-1.37.07-2.73A1.68,1.68,0,0,0,151,62.45a1.7,1.7,0,0,0-1.66,1.66q-.07,1.36-.07,2.73a1.66,1.66,0,1,0,3.33,0Z"/><path class="cls-9" d="M253.12,107.7c-17.42,20.92-46.45,29-72,19.42a64,64,0,0,1-27.49-99.7c1.32-1.66-1-4-2.35-2.35-17.82,22.52-19.84,54.52-4.11,78.72a67.26,67.26,0,0,0,108.36,6.27c1.36-1.64-1-4-2.35-2.35Z"/><path class="cls-9" d="M259.53,98.23q-1.29,2.31-2.75,4.51c-1.19,1.79,1.69,3.46,2.87,1.68q1.46-2.21,2.75-4.51c1-1.87-1.83-3.55-2.87-1.68Z"/><path class="cls-9" d="M173,11.11a63.94,63.94,0,0,1,92.6,71.81c-.51,2.08,2.7,3,3.21.88A67.29,67.29,0,0,0,171.31,8.24c-1.89,1-.21,3.89,1.68,2.87Z"/><path class="cls-10" d="M220.55,67.08a12.6,12.6,0,0,0-4.32-1.89,11.8,11.8,0,0,0,3-2.51,9.6,9.6,0,0,0,1.39-4.21c.07-1,.24-5.24-3-7.68-2.53-1.89-5.43-2.63-9.32-2.88V39.37h-5.22v8.44h-4V39.37h-5.22v8.44H183.6v5.47h3c.82,0,2.29.09,2.91.79s.73,1.07.73,2.44,0,21.28,0,21.8a2.14,2.14,0,0,1-.54,1.58c-.44.42-.88.52-1.93.52h-3.12l-1.07,6.33h10.28v8.42h5.22V86.73h4v8.42h5.22V86.59c1.35-.08,2.61-.18,3.34-.28a17.27,17.27,0,0,0,8-2.81c3.15-2.22,3.86-5.69,3.93-9.18S222.33,68.44,220.55,67.08ZM199.1,53.77s1.66-.15,3.3-.12a16.49,16.49,0,0,1,5.22.74,4.54,4.54,0,0,1,3.47,4.21,4.13,4.13,0,0,1-2.25,4,12.64,12.64,0,0,1-5.39,1.33c-1.9.07-4.34,0-4.34,0Zm11.69,25.18a16.47,16.47,0,0,1-5.91,1.43c-2.32.17-5.78.1-5.78.1V69.17s3.32-.17,5.91,0a16.61,16.61,0,0,1,5.74,1.33,4.68,4.68,0,0,1,0,8.44Z" data-name="BTC alt" id="BTC_alt-2"/><path class="cls-11" d="M219.34,23a29.81,29.81,0,0,1,10.84,5.75c.82.68,2-.49,1.18-1.18a31.9,31.9,0,0,0-11.58-6.17.83.83,0,0,0-.44,1.6Z"/><circle class="cls-4" cx="270.24" cy="123" r="65.18"/><circle class="cls-5" cx="278.58" cy="113.57" r="64.07"/><path class="cls-6" d="M280.78,178.11c-1.1.06-2.21.08-3.33.08a64.07,64.07,0,0,1,0-128.14c1.11,0,2.23,0,3.33.08a64.07,64.07,0,0,0,0,128Z"/><path class="cls-6" d="M275.51,50.13c1.1-.06,2.21-.08,3.33-.08a64.07,64.07,0,0,1,0,128.14c-1.11,0-2.23,0-3.33-.08a64.07,64.07,0,0,0,0-128Z"/><circle class="cls-7" cx="278.58" cy="113.57" r="52.97"/><path class="cls-8" d="M288.86,62a53,53,0,0,1,34.54,24.88.83.83,0,0,0,1.44-.84A54.61,54.61,0,0,0,289.31,60.4c-1-.23-1.49,1.38-.44,1.6Z"/><path class="cls-8" d="M331,113.16A52.7,52.7,0,0,1,278.9,165.3a.83.83,0,0,0,0,1.66,54.4,54.4,0,0,0,53.81-53.81.83.83,0,0,0-1.66,0Z"/><path class="cls-9" d="M228.25,104.83a52,52,0,0,1,50.65-43c2.14,0,2.15-3.35,0-3.33A55.26,55.26,0,0,0,225,103.95c-.37,2.09,2.84,3,3.21.88Z"/><path class="cls-9" d="M227.59,113.16q0-1.37.07-2.73a1.68,1.68,0,0,0-1.66-1.66,1.7,1.7,0,0,0-1.66,1.66q-.07,1.36-.07,2.73a1.66,1.66,0,0,0,3.33,0Z"/><path class="cls-9" d="M328.1,154c-17.42,20.92-46.45,29-72,19.42a64,64,0,0,1-27.49-99.7c1.32-1.66-1-4-2.35-2.35-17.82,22.52-19.84,54.52-4.11,78.72a67.26,67.26,0,0,0,108.36,6.27c1.36-1.64-1-4-2.35-2.35Z"/><path class="cls-9" d="M334.52,144.55q-1.29,2.31-2.75,4.51c-1.19,1.79,1.69,3.46,2.87,1.68q1.46-2.21,2.75-4.51c1-1.87-1.83-3.55-2.87-1.68Z"/><path class="cls-9" d="M248,57.43a63.94,63.94,0,0,1,92.6,71.81c-.51,2.08,2.7,3,3.21.88A67.29,67.29,0,0,0,246.3,54.55c-1.89,1-.21,3.89,1.68,2.87Z"/><path class="cls-10" d="M295.54,113.4a12.6,12.6,0,0,0-4.32-1.89,11.8,11.8,0,0,0,3-2.51,9.6,9.6,0,0,0,1.39-4.21c.07-1,.24-5.24-3-7.68-2.53-1.89-5.43-2.63-9.32-2.88V85.68h-5.22v8.44h-4V85.68h-5.22v8.44H258.59V99.6h3c.82,0,2.29.09,2.91.79s.73,1.07.73,2.44,0,21.28,0,21.8a2.14,2.14,0,0,1-.54,1.58c-.44.42-.88.52-1.93.52h-3.12L258.59,133h10.28v8.42h5.22V133h4v8.42h5.22V132.9c1.35-.08,2.61-.18,3.34-.28a17.27,17.27,0,0,0,8-2.81c3.15-2.22,3.86-5.69,3.93-9.18S297.32,114.75,295.54,113.4Zm-21.46-13.32s1.66-.15,3.3-.12a16.49,16.49,0,0,1,5.22.74,4.54,4.54,0,0,1,3.47,4.21,4.13,4.13,0,0,1-2.25,4,12.64,12.64,0,0,1-5.39,1.33c-1.9.07-4.34,0-4.34,0Zm11.69,25.18a16.47,16.47,0,0,1-5.91,1.43c-2.32.17-5.78.1-5.78.1v-11.3s3.32-.17,5.91,0a16.61,16.61,0,0,1,5.74,1.33,4.68,4.68,0,0,1,0,8.44Z" data-name="BTC alt" id="BTC_alt-3"/><path class="cls-11" d="M294.33,69.34a29.81,29.81,0,0,1,10.84,5.75c.82.68,2-.49,1.18-1.18a31.9,31.9,0,0,0-11.58-6.17.83.83,0,0,0-.44,1.6Z"/><rect class="cls-11" height="188.86" rx="31.35" ry="31.35" width="259.34" x="89.61" y="96.87"/><g class="cls-2"><path class="cls-3" d="M348.32,115.94V261c0,9.77-24.11,26.77-32.8,26.77H116.39c-8.06,0-14.76-6.89-15.68-15.68a12.86,12.86,0,0,0,1.86.13H318.7c8.69,0,15.8-8,15.8-17.77v-154a18.14,18.14,0,0,0-.12-2.09C342.2,99.34,348.32,106.88,348.32,115.94Z"/></g><rect class="cls-9" height="3.46" width="32.98" x="89.45" y="161.19"/><circle class="cls-9" cx="128.85" cy="162.92" r="7.16"/><rect class="cls-9" height="3.46" width="67.46" x="91.25" y="178.25"/><circle class="cls-9" cx="164.24" cy="179.98" r="7.16"/><rect class="cls-9" height="3.46" width="55.8" x="89.45" y="195.31"/><circle class="cls-9" cx="150.34" cy="197.04" r="7.16"/><rect class="cls-9" height="3.46" width="67.22" x="93.04" y="212.37"/><circle class="cls-9" cx="164.24" cy="214.1" r="7.16"/><circle class="cls-9" cx="61.11" cy="104.23" r="4.5"/><circle class="cls-12" cx="56.11" cy="265.23" r="4.5"/><path class="cls-9" d="M50.11,131.73v8a1.5,1.5,0,0,0,3,0v-8a1.5,1.5,0,0,0-3,0Z"/><path class="cls-9" d="M55.61,134.23h-8a1.5,1.5,0,0,0,0,3h8a1.5,1.5,0,0,0,0-3Z"/><circle class="cls-12" cx="371.11" cy="79.23" r="4.5"/><circle class="cls-9" cx="375.11" cy="233.23" r="4.5"/><path class="cls-9" d="M360.11,245.73v8a1.5,1.5,0,0,0,3,0v-8a1.5,1.5,0,0,0-3,0Z"/><path class="cls-9" d="M365.61,248.23h-8a1.5,1.5,0,0,0,0,3h8a1.5,1.5,0,0,0,0-3Z"/><path class="cls-9" d="M314.85,283.73H128.52a62.85,62.85,0,0,1-7.54-.23,31.49,31.49,0,0,1-26.29-22.86c-2.34-8.68-1.06-19.11-1.06-28v-92.4c0-3,0-6,0-9a31.69,31.69,0,0,1,13.59-25.94c8.49-5.83,17.74-5.44,27.4-5.44H306.12c10.59,0,20.67.17,29.26,7.79C346,117.07,346,129.25,346,142v92.89c0,9.54,1.35,20.84-2.46,29.79a31.62,31.62,0,0,1-28.65,19c-3.86.08-3.87,6.08,0,6,20.91-.43,37-17.18,37.11-38,.07-11,0-21.95,0-32.92,0-28.94.15-57.88,0-86.82-.1-20.1-15.23-37.24-35.71-38.13-6.27-.27-12.6,0-18.87,0H200c-24.67,0-49.35-.11-74,0-18.48.08-35.07,12.71-37.88,31.48-1.36,9.07-.46,18.79-.46,27.91v93.86A77.23,77.23,0,0,0,88,257.58a37.44,37.44,0,0,0,19,27.61c8.92,4.84,18.16,4.55,27.85,4.55h180C318.71,289.73,318.71,283.73,314.85,283.73Z"/><rect class="cls-11" height="46.09" rx="12" ry="12" width="79.01" x="289.7" y="153.49"/><g class="cls-2"><path class="cls-3" d="M368.61,173.73v12a12,12,0,0,1-12,12h-55a12,12,0,0,1-12-12v-12a12,12,0,0,0,12,12h55A12,12,0,0,0,368.61,173.73Z"/></g><path class="cls-9" d="M356.71,196.58H318.53c-5.47,0-11,.21-16.45,0-9.94-.39-9.37-9.45-9.37-16.68,0-6.27-2.1-17.45,3.78-21.67,4-2.85,10.93-1.73,15.55-1.73,14.46,0,28.95-.28,43.4,0,4.47.09,8.62,1.89,9.93,6.62.82,3,.34,6.56.34,9.59,0,8,2.79,23.23-9,23.87-3.84.21-3.86,6.21,0,6,5.92-.32,11.19-3.36,13.67-8.9,1.54-3.44,1.33-7,1.33-10.71,0-7.44,1.9-18.29-2.05-25-4.25-7.24-11.6-7.44-18.92-7.44H322.8c-6.9,0-13.83-.22-20.72,0-9.71.3-15.31,7.55-15.37,16.82,0,4.5,0,9,0,13.5,0,3.28-.37,6.9.39,10.13,2.1,9,10.1,11.64,18.24,11.64h51.38C360.57,202.58,360.57,196.58,356.71,196.58Z"/></g></g></svg>